<?xml version="1.0" encoding="UTF-8" standalone="no"?>
<!DOCTYPE svg PUBLIC "-//W3C//DTD SVG 1.1//EN" "http://www.w3.org/Graphics/SVG/1.1/DTD/svg11.dtd">
<svg width="100%" height="100%" viewBox="0 0 598 600" version="1.1" xmlns="http://www.w3.org/2000/svg" xmlns:xlink="http://www.w3.org/1999/xlink" xml:space="preserve" style="fill-rule:evenodd;clip-rule:evenodd;stroke-linejoin:round;stroke-miterlimit:1.41421;">
    <g>
        <path d="M398.515,478.088C369.071,494.589 335.126,504 299,504C211.514,504 136.817,448.81 107.855,371.376L492.591,235.546C499.343,255.809 503,277.481 503,300C503,330.142 496.449,358.765 484.694,384.523L317.274,310.854C316.136,310.353 314.805,310.625 313.955,311.533C313.105,312.441 312.921,313.786 313.496,314.889L398.515,478.088ZM95.581,284.508C103.508,179.143 191.621,96 299,96C357.531,96 410.338,120.704 447.554,160.244L95.581,284.508Z" style="fill:rgb(255,77,0);"/>
        <g transform="matrix(0.943097,-0.332518,0.332518,0.943097,-159.838,126.74)">
            <text x="100px" y="297.682px" style="font-family:'Arial-BoldMT', 'Arial', sans-serif;font-weight:700;font-size:76px;fill:rgb(3,3,3);">Connect4Pizza</text>
        </g>
        <g transform="matrix(0.652046,-0.692633,0.676473,0.636833,-69.0482,426.293)">
            <path d="M363.094,304.464C363.528,303.202 364.693,302.357 366,302.357C367.307,302.357 368.472,303.202 368.906,304.464C382.013,342.647 435,497 435,497L426.978,504.7L406.766,515.2L378.514,518.942L351.717,515.824L326.398,511.126L306.269,504.335L297,497C297,497 349.987,342.647 363.094,304.464Z" style="fill:rgb(255,77,0);"/>
        </g>
    </g>
</svg>
